<mxfile host="app.diagrams.net" agent="Mozilla/5.0 (Macintosh; Intel Mac OS X 10_15_7) AppleWebKit/605.1.15 (KHTML, like Gecko) Version/18.1.1 Safari/605.1.15" version="28.0.5">
  <diagram name="Seite-1" id="GFAKtvNu6xt8hISohB2g">
    <mxGraphModel dx="2006" dy="800" grid="1" gridSize="10" guides="1" tooltips="1" connect="1" arrows="1" fold="1" page="1" pageScale="1" pageWidth="827" pageHeight="1169" math="0" shadow="0">
      <root>
        <mxCell id="0" />
        <mxCell id="1" parent="0" />
        <mxCell id="Z2FBNdWlQqv_PJyn-Pl6-7" style="edgeStyle=orthogonalEdgeStyle;rounded=0;orthogonalLoop=1;jettySize=auto;html=1;" parent="1" source="Z2FBNdWlQqv_PJyn-Pl6-1" target="Z2FBNdWlQqv_PJyn-Pl6-6" edge="1">
          <mxGeometry relative="1" as="geometry" />
        </mxCell>
        <mxCell id="Z2FBNdWlQqv_PJyn-Pl6-1" value="Crawlers" style="rounded=1;whiteSpace=wrap;html=1;" parent="1" vertex="1">
          <mxGeometry x="400" y="270" width="120" height="60" as="geometry" />
        </mxCell>
        <mxCell id="Z2FBNdWlQqv_PJyn-Pl6-5" style="edgeStyle=orthogonalEdgeStyle;rounded=0;orthogonalLoop=1;jettySize=auto;html=1;" parent="1" source="Z2FBNdWlQqv_PJyn-Pl6-2" target="Z2FBNdWlQqv_PJyn-Pl6-3" edge="1">
          <mxGeometry relative="1" as="geometry" />
        </mxCell>
        <mxCell id="Z2FBNdWlQqv_PJyn-Pl6-2" value="Priotizer" style="rounded=1;whiteSpace=wrap;html=1;" parent="1" vertex="1">
          <mxGeometry x="120" y="270" width="120" height="60" as="geometry" />
        </mxCell>
        <mxCell id="Z2FBNdWlQqv_PJyn-Pl6-3" value="Priotized Queue" style="shape=cylinder3;whiteSpace=wrap;html=1;boundedLbl=1;backgroundOutline=1;size=15;" parent="1" vertex="1">
          <mxGeometry x="290" y="260" width="60" height="80" as="geometry" />
        </mxCell>
        <mxCell id="Z2FBNdWlQqv_PJyn-Pl6-4" style="edgeStyle=orthogonalEdgeStyle;rounded=0;orthogonalLoop=1;jettySize=auto;html=1;entryX=1;entryY=0.5;entryDx=0;entryDy=0;entryPerimeter=0;" parent="1" source="Z2FBNdWlQqv_PJyn-Pl6-1" target="Z2FBNdWlQqv_PJyn-Pl6-3" edge="1">
          <mxGeometry relative="1" as="geometry" />
        </mxCell>
        <mxCell id="Z2FBNdWlQqv_PJyn-Pl6-6" value="Robots.txt&lt;div&gt;Cache&lt;/div&gt;" style="shape=cylinder3;whiteSpace=wrap;html=1;boundedLbl=1;backgroundOutline=1;size=15;" parent="1" vertex="1">
          <mxGeometry x="570" y="260" width="60" height="80" as="geometry" />
        </mxCell>
        <mxCell id="Z2FBNdWlQqv_PJyn-Pl6-8" value="Parser Queue" style="shape=cylinder3;whiteSpace=wrap;html=1;boundedLbl=1;backgroundOutline=1;size=15;" parent="1" vertex="1">
          <mxGeometry x="430" y="360" width="60" height="80" as="geometry" />
        </mxCell>
        <mxCell id="Z2FBNdWlQqv_PJyn-Pl6-9" style="edgeStyle=orthogonalEdgeStyle;rounded=0;orthogonalLoop=1;jettySize=auto;html=1;entryX=0.5;entryY=0;entryDx=0;entryDy=0;entryPerimeter=0;" parent="1" source="Z2FBNdWlQqv_PJyn-Pl6-1" target="Z2FBNdWlQqv_PJyn-Pl6-8" edge="1">
          <mxGeometry relative="1" as="geometry" />
        </mxCell>
        <mxCell id="Z2FBNdWlQqv_PJyn-Pl6-13" style="edgeStyle=orthogonalEdgeStyle;rounded=0;orthogonalLoop=1;jettySize=auto;html=1;" parent="1" source="Z2FBNdWlQqv_PJyn-Pl6-10" target="Z2FBNdWlQqv_PJyn-Pl6-12" edge="1">
          <mxGeometry relative="1" as="geometry" />
        </mxCell>
        <mxCell id="Z2FBNdWlQqv_PJyn-Pl6-10" value="Parser" style="rounded=1;whiteSpace=wrap;html=1;" parent="1" vertex="1">
          <mxGeometry x="400" y="470" width="120" height="60" as="geometry" />
        </mxCell>
        <mxCell id="Z2FBNdWlQqv_PJyn-Pl6-11" style="edgeStyle=orthogonalEdgeStyle;rounded=0;orthogonalLoop=1;jettySize=auto;html=1;entryX=0.5;entryY=1;entryDx=0;entryDy=0;entryPerimeter=0;" parent="1" source="Z2FBNdWlQqv_PJyn-Pl6-10" target="Z2FBNdWlQqv_PJyn-Pl6-8" edge="1">
          <mxGeometry relative="1" as="geometry" />
        </mxCell>
        <mxCell id="Z2FBNdWlQqv_PJyn-Pl6-14" style="edgeStyle=orthogonalEdgeStyle;rounded=0;orthogonalLoop=1;jettySize=auto;html=1;exitX=0;exitY=0.25;exitDx=0;exitDy=0;entryX=0.5;entryY=1;entryDx=0;entryDy=0;" parent="1" source="Z2FBNdWlQqv_PJyn-Pl6-12" target="Z2FBNdWlQqv_PJyn-Pl6-2" edge="1">
          <mxGeometry relative="1" as="geometry" />
        </mxCell>
        <mxCell id="Z2FBNdWlQqv_PJyn-Pl6-20" style="edgeStyle=orthogonalEdgeStyle;rounded=0;orthogonalLoop=1;jettySize=auto;html=1;exitX=0;exitY=0.75;exitDx=0;exitDy=0;entryX=0.5;entryY=1;entryDx=0;entryDy=0;" parent="1" source="Z2FBNdWlQqv_PJyn-Pl6-12" target="Z2FBNdWlQqv_PJyn-Pl6-18" edge="1">
          <mxGeometry relative="1" as="geometry" />
        </mxCell>
        <mxCell id="Z2FBNdWlQqv_PJyn-Pl6-12" value="Website Data Fanout" style="rounded=1;whiteSpace=wrap;html=1;" parent="1" vertex="1">
          <mxGeometry x="400" y="555" width="120" height="60" as="geometry" />
        </mxCell>
        <mxCell id="Z2FBNdWlQqv_PJyn-Pl6-15" value="Recently Seen Cache" style="shape=cylinder3;whiteSpace=wrap;html=1;boundedLbl=1;backgroundOutline=1;size=15;" parent="1" vertex="1">
          <mxGeometry x="150" y="160" width="60" height="80" as="geometry" />
        </mxCell>
        <mxCell id="Z2FBNdWlQqv_PJyn-Pl6-16" style="edgeStyle=orthogonalEdgeStyle;rounded=0;orthogonalLoop=1;jettySize=auto;html=1;entryX=0.5;entryY=1;entryDx=0;entryDy=0;entryPerimeter=0;" parent="1" source="Z2FBNdWlQqv_PJyn-Pl6-2" target="Z2FBNdWlQqv_PJyn-Pl6-15" edge="1">
          <mxGeometry relative="1" as="geometry" />
        </mxCell>
        <mxCell id="Z2FBNdWlQqv_PJyn-Pl6-19" style="edgeStyle=orthogonalEdgeStyle;rounded=0;orthogonalLoop=1;jettySize=auto;html=1;exitX=1;exitY=0.5;exitDx=0;exitDy=0;" parent="1" source="Z2FBNdWlQqv_PJyn-Pl6-18" target="Z2FBNdWlQqv_PJyn-Pl6-2" edge="1">
          <mxGeometry relative="1" as="geometry" />
        </mxCell>
        <mxCell id="Z2FBNdWlQqv_PJyn-Pl6-18" value="URL Frontier" style="rounded=1;whiteSpace=wrap;html=1;" parent="1" vertex="1">
          <mxGeometry x="-40" y="270" width="120" height="60" as="geometry" />
        </mxCell>
        <mxCell id="Z2FBNdWlQqv_PJyn-Pl6-23" value="Known Websites" style="shape=cylinder3;whiteSpace=wrap;html=1;boundedLbl=1;backgroundOutline=1;size=15;" parent="1" vertex="1">
          <mxGeometry x="-10" y="160" width="60" height="80" as="geometry" />
        </mxCell>
        <mxCell id="Z2FBNdWlQqv_PJyn-Pl6-25" style="edgeStyle=orthogonalEdgeStyle;rounded=0;orthogonalLoop=1;jettySize=auto;html=1;exitX=0.5;exitY=0;exitDx=0;exitDy=0;entryX=0.5;entryY=1;entryDx=0;entryDy=0;entryPerimeter=0;" parent="1" source="Z2FBNdWlQqv_PJyn-Pl6-18" target="Z2FBNdWlQqv_PJyn-Pl6-23" edge="1">
          <mxGeometry relative="1" as="geometry" />
        </mxCell>
        <mxCell id="Z2FBNdWlQqv_PJyn-Pl6-27" value="Website Data Storage" style="shape=cylinder3;whiteSpace=wrap;html=1;boundedLbl=1;backgroundOutline=1;size=15;" parent="1" vertex="1">
          <mxGeometry x="430" y="640" width="60" height="80" as="geometry" />
        </mxCell>
        <mxCell id="Z2FBNdWlQqv_PJyn-Pl6-28" style="edgeStyle=orthogonalEdgeStyle;rounded=0;orthogonalLoop=1;jettySize=auto;html=1;entryX=0.5;entryY=0;entryDx=0;entryDy=0;entryPerimeter=0;" parent="1" source="Z2FBNdWlQqv_PJyn-Pl6-12" target="Z2FBNdWlQqv_PJyn-Pl6-27" edge="1">
          <mxGeometry relative="1" as="geometry" />
        </mxCell>
        <mxCell id="Z2FBNdWlQqv_PJyn-Pl6-29" value="API" style="rounded=1;whiteSpace=wrap;html=1;" parent="1" vertex="1">
          <mxGeometry x="400" y="750" width="120" height="60" as="geometry" />
        </mxCell>
        <mxCell id="Z2FBNdWlQqv_PJyn-Pl6-30" style="edgeStyle=orthogonalEdgeStyle;rounded=0;orthogonalLoop=1;jettySize=auto;html=1;entryX=0.5;entryY=1;entryDx=0;entryDy=0;entryPerimeter=0;" parent="1" source="Z2FBNdWlQqv_PJyn-Pl6-29" target="Z2FBNdWlQqv_PJyn-Pl6-27" edge="1">
          <mxGeometry relative="1" as="geometry" />
        </mxCell>
        <mxCell id="Z2FBNdWlQqv_PJyn-Pl6-34" style="edgeStyle=orthogonalEdgeStyle;rounded=0;orthogonalLoop=1;jettySize=auto;html=1;entryX=0;entryY=0.5;entryDx=0;entryDy=0;" parent="1" source="Z2FBNdWlQqv_PJyn-Pl6-31" target="Z2FBNdWlQqv_PJyn-Pl6-32" edge="1">
          <mxGeometry relative="1" as="geometry" />
        </mxCell>
        <mxCell id="Z2FBNdWlQqv_PJyn-Pl6-31" value="Actor" style="shape=umlActor;verticalLabelPosition=bottom;verticalAlign=top;html=1;outlineConnect=0;" parent="1" vertex="1">
          <mxGeometry x="165" y="750" width="30" height="60" as="geometry" />
        </mxCell>
        <mxCell id="Z2FBNdWlQqv_PJyn-Pl6-35" style="edgeStyle=orthogonalEdgeStyle;rounded=0;orthogonalLoop=1;jettySize=auto;html=1;entryX=0;entryY=0.5;entryDx=0;entryDy=0;" parent="1" source="Z2FBNdWlQqv_PJyn-Pl6-32" target="Z2FBNdWlQqv_PJyn-Pl6-29" edge="1">
          <mxGeometry relative="1" as="geometry" />
        </mxCell>
        <mxCell id="Z2FBNdWlQqv_PJyn-Pl6-32" value="Search Engine Website" style="rounded=1;whiteSpace=wrap;html=1;" parent="1" vertex="1">
          <mxGeometry x="240" y="750" width="120" height="60" as="geometry" />
        </mxCell>
      </root>
    </mxGraphModel>
  </diagram>
</mxfile>
